<svg viewBox="0 0 152 30" xmlns="http://www.w3.org/2000/svg">
  <path d="M27.14 15.56c-0.3-0.94-0.89-1.71-1.7-2.25l-2.17-1.41c-0.41-0.26-0.88-0.45-1.39-0.55l-5.19-1.04c-0.95-0.19-1.7-0.93-1.89-1.89l-0.74-3.91c-0.18-0.93-0.95-1.63-1.89-1.7l-2.83-0.26c-1.05-0.09-2.03 0.53-2.42 1.52l-1.32 3.38c-0.3 0.77-0.96 1.35-1.78 1.54l-3.42 0.81c-0.87 0.2-1.52 0.93-1.65 1.82l-0.44 3.01c-0.13 0.89 0.27 1.77 1.04 2.27l3.51 2.28c0.63 0.41 1.07 1.06 1.22 1.8l0.74 3.83c0.16 0.83 0.8 1.5 1.62 1.7l3.34 0.81c0.9 0.22 1.84-0.14 2.35-0.89l2.17-3.26c0.45-0.67 1.19-1.1 2-1.14l4.07-0.22c0.82-0.04 1.55 0.39 1.95 1.12l1.78 3.22c0.47 0.85 1.42 1.33 2.37 1.2l3.11-0.41c0.86-0.11 1.57-0.72 1.81-1.56l1.2-4.28c0.17-0.73 0.12-1.47-0.15-2.16l-1.25-3.23z" fill="#33C28A"/>
  <path d="M9.94 14.38c0-0.76 0.62-1.38 1.38-1.38h6.89c0.76 0 1.38 0.62 1.38 1.38 0 0.76-0.62 1.38-1.38 1.38h-6.89c-0.76 0-1.38-0.62-1.38-1.38z" fill="white"/>
  <path d="M43.1 6.8h4.18c3.15 0 5.66 2.33 5.66 5.48v0.06c0 3.15-2.51 5.54-5.66 5.54H43.1V6.8zm1.82 1.7v7.68h2.36c2.18 0 3.78-1.48 3.78-3.81v-0.06c0-2.33-1.6-3.81-3.78-3.81h-2.36zM55.6 6.8h1.82v11.08H55.6V6.8zm5.48 0h1.9l4.39 7.16V6.8h1.79v11.08h-1.7l-4.6-7.46v7.46h-1.79V6.8h.01zM75.61 16.51l1.08-1.29c1.11 0.96 2.18 1.48 3.63 1.48 1.33 0 2.18-0.65 2.18-1.54v-0.06c0-0.86-0.48-1.33-2.54-1.85-2.39-0.62-3.72-1.38-3.72-3.6v-0.06c0-2.05 1.7-3.48 4.06-3.48 1.73 0 3.09 0.52 4.3 1.51l-0.99 1.38c-1.08-0.86-2.15-1.23-3.36-1.23-1.26 0-2.02 0.65-2.02 1.45v0.06c0 0.93 0.55 1.35 2.7 1.92 2.36 0.62 3.57 1.54 3.57 3.51v0.06c0 2.24-1.76 3.57-4.24 3.57-1.92 0-3.66-0.65-5.05-1.95l.4-.88zM92.14 6.8h1.82v11.08h-1.82V6.8zm4.45 0h7.62v1.67h-5.79v3.02h5.14v1.67h-5.14v3.06h5.88v1.67h-7.7V6.8h-.01zm9.35 6.6v-0.06c0-3.15 2.36-5.63 5.63-5.63 1.92 0 3.12 0.56 4.27 1.54l-1.17 1.42c-0.86-0.71-1.7-1.2-3.15-1.2-2.08 0-3.69 1.82-3.69 3.81v0.06c0 2.21 1.54 3.87 3.87 3.87 1.11 0 2.11-0.4 2.82-0.9v-2.15h-2.98v-1.64h4.75v4.66c-1.08 0.96-2.61 1.79-4.66 1.79-3.45 0-5.7-2.39-5.7-5.57h.01zM119.97 6.8h1.82v9.35h5.76v1.73h-7.59V6.8h.01zM134.42 6.8h1.82v11.08h-1.82V6.8zm3.93 5.54v-0.06c0-3.15 2.48-5.63 5.88-5.63 3.39 0 5.85 2.42 5.85 5.57v0.06c0 3.15-2.48 5.63-5.88 5.63-3.39 0-5.85-2.42-5.85-5.57zm9.81 0v-0.06c0-2.21-1.6-4.05-3.97-4.05-2.33 0-3.93 1.79-3.93 3.99v0.06c0 2.21 1.6 4.02 3.97 4.02 2.33 0 3.93-1.79 3.93-3.99v.03z" fill="#1A2938"/>
</svg>